# demo_cube_winding_fixed.obj
o Cube_With_UV

# 8 Unique Vertex Positions
v -0.5 -0.5 -0.5
v  0.5 -0.5 -0.5
v  0.5  0.5 -0.5
v -0.5  0.5 -0.5
v -0.5 -0.5  0.5
v  0.5 -0.5  0.5
v  0.5  0.5  0.5
v -0.5  0.5  0.5

# 24 UV Coordinates (4 per face)
vt 0.0 0.0
vt 1.0 0.0
vt 1.0 1.0
vt 0.0 1.0

vt 0.0 0.0
vt 1.0 0.0
vt 1.0 1.0
vt 0.0 1.0

vt 0.0 0.0
vt 1.0 0.0
vt 1.0 1.0
vt 0.0 1.0

vt 0.0 0.0
vt 1.0 0.0
vt 1.0 1.0
vt 0.0 1.0

vt 0.0 0.0
vt 1.0 0.0
vt 1.0 1.0
vt 0.0 1.0

vt 0.0 0.0
vt 1.0 0.0
vt 1.0 1.0
vt 0.0 1.0

# 6 Face Normals
vn  0.0  0.0 -1.0
vn  0.0  0.0  1.0
vn -1.0  0.0  0.0
vn  1.0  0.0  0.0
vn  0.0  1.0  0.0
vn  0.0 -1.0  0.0

# Back face (z = -0.5)
f 1/1/1  4/2/1  3/3/1
f 2/1/1  1/3/1  3/4/1

# Front face (z = +0.5)
f 5/5/2  6/6/2  7/7/2
f 5/5/2  7/7/2  8/8/2

# Left face (x = -0.5)
f 1/9/3   5/10/3  8/11/3
f 1/9/3   8/11/3  4/12/3

# Right face (x = +0.5)
f 2/13/4  3/14/4  7/15/4
f 6/13/4  2/15/4  7/16/4

# Top face (y = +0.5)
f 7/17/5  3/18/5  4/19/5
f 4/17/5  8/19/5  7/20/5

# Bottom face (y = -0.5)
f 1/21/6  2/22/6  6/23/6
f 1/21/6  6/23/6  5/24/6
